<svg xmlns="http://www.w3.org/2000/svg" viewBox="0 0 200 187.31"><title>Asset 11</title><g id="Layer_2" data-name="Layer 2"><g id="Isolation_Mode" data-name="Isolation Mode"><path d="M179.59,187.31H20.41A20.43,20.43,0,0,1,0,166.9V20.41A20.43,20.43,0,0,1,20.41,0H179.59A20.43,20.43,0,0,1,200,20.41V166.9A20.43,20.43,0,0,1,179.59,187.31ZM20.41,1.85A18.58,18.58,0,0,0,1.85,20.41V166.9a18.58,18.58,0,0,0,18.56,18.56H179.59a18.58,18.58,0,0,0,18.56-18.56V20.41A18.58,18.58,0,0,0,179.59,1.85Z" style="fill:#787878"/><rect x="57.31" y="76.02" width="30" height="35.93" style="fill:#787878"/><rect x="57.31" y="36.49" width="60" height="35.93" style="fill:#787878"/><rect x="11.39" y="36.49" width="15.92" height="35.93" style="fill:#787878"/><rect x="11.39" y="76.02" width="15.92" height="35.93" style="fill:#787878"/><path d="M169.35,13.89h-140c-9.25,0-16.94,8.19-18.59,19H187.94C186.29,22.08,178.6,13.89,169.35,13.89Z" style="fill:#787878"/><rect x="147.31" y="36.49" width="41.93" height="35.93" style="fill:#787878"/><rect x="147.31" y="76.02" width="41.93" height="35.93" style="fill:#787878"/><path d="M177.31,151.47h11.88c0-.46.06-.92.06-1.39V115.54H177.31Z" style="fill:#787878"/><path d="M30.31,173.42h140c9.06,0,16.63-7.86,18.48-18.35h-177C13.69,165.56,21.25,173.42,30.31,173.42Z" style="fill:#787878"/><path d="M27.31,115.54H11.39v34.54c0,.47,0,.93.06,1.39H27.31Z" style="fill:#787878"/></g></g></svg>
