<?xml version="1.0" encoding="utf-8"?>
<!-- Generator: Adobe Illustrator 23.0.4, SVG Export Plug-In . SVG Version: 6.00 Build 0)  -->
<svg version="1.1" id="Layer_1" xmlns="http://www.w3.org/2000/svg" xmlns:xlink="http://www.w3.org/1999/xlink" x="0px" y="0px"
	 viewBox="0 0 168.7 176.8" style="enable-background:new 0 0 168.7 176.8;" xml:space="preserve">
<style type="text/css">
	.st0{fill:#378B73;}
	.st1{fill:#FFFFFF;}
</style>
<g>
	<g id="Isolation_Mode_5_">
		<path class="st0" d="M169.1,36.6C169.1,16.4,131.4,0,84.7,0S0.4,16.4,0.4,36.6v103.5c0,20.2,37.8,36.6,84.4,36.6
			s84.4-16.4,84.4-36.6V36.6z"/>
	</g>
</g>
<g>
	<polygon class="st1" points="121.1,109.4 121.1,67.4 84.7,46.4 48.4,67.4 48.4,109.4 84.7,130.3 	"/>
	<g>
		<path class="st1" d="M84.7,137.6L42.1,113V63.8l0.2-0.1l42.4-24.5l42.6,24.6V113l-0.2,0.1L84.7,137.6z M43.1,112.4l41.6,24
			l41.6-24V64.3l-41.6-24l-41.6,24V112.4z"/>
	</g>
</g>
</svg>
