<?xml version="1.0" encoding="utf-8"?>
<!-- Generator: Adobe Illustrator 23.0.4, SVG Export Plug-In . SVG Version: 6.00 Build 0)  -->
<svg version="1.1" id="Layer_1" xmlns="http://www.w3.org/2000/svg" xmlns:xlink="http://www.w3.org/1999/xlink" x="0px" y="0px"
	 viewBox="0 0 168.7 176.8" style="enable-background:new 0 0 168.7 176.8;" xml:space="preserve">
<style type="text/css">
	.st0{fill:#388D73;}
	.st1{fill:#FFFFFF;}
</style>
<path class="st0" d="M168.7,36.6C168.7,16.4,131,0,84.4,0S0,16.4,0,36.6v103.6c0,20.2,37.8,36.6,84.4,36.6s84.4-16.4,84.4-36.6V36.6
	z"/>
<polygon class="st1" points="126.5,114 126.5,65 84.1,40.6 41.7,65 41.7,114 84.1,138.4 "/>
<path class="st1" d="M84.4,149.9L32.7,120V60.3l51.7-29.8l51.7,29.8V120L84.4,149.9z M35,118.7l49.4,28.5l49.4-28.5v-57L84.4,33.2
	L35,61.7V118.7z"/>
</svg>
