<svg xmlns="http://www.w3.org/2000/svg" viewBox="0 0 170 163"><title>Asset 10</title><g id="Layer_2" data-name="Layer 2"><g id="Isolation_Mode" data-name="Isolation Mode"><rect x="42.57" y="59.11" width="40.3" height="24.04" style="fill:#787878;opacity:0.25"/><rect x="42.57" y="84.95" width="40.3" height="24.04" style="fill:#787878;opacity:0.5"/><rect x="42.57" y="33.27" width="40.3" height="24.04" style="fill:#787878;opacity:0.5"/><rect x="42.57" y="2" width="40.3" height="29.09" style="fill:#787878"/><rect x="42.57" y="110.79" width="40.3" height="24.04" style="fill:#787878;opacity:0.25"/><rect y="59.11" width="40.3" height="24.04" style="fill:#787878;opacity:0.25"/><rect y="84.95" width="40.3" height="24.04" style="fill:#787878;opacity:0.5"/><rect y="33.27" width="40.3" height="24.04" style="fill:#787878;opacity:0.5"/><rect y="2" width="40.3" height="29.09" style="fill:#787878"/><rect y="110.79" width="40.3" height="24.04" style="fill:#787878;opacity:0.25"/><rect x="85.13" y="59.11" width="40.3" height="24.04" style="fill:#787878;opacity:0.25"/><rect x="85.13" y="84.95" width="40.3" height="24.04" style="fill:#787878;opacity:0.5"/><rect x="85.13" y="33.27" width="40.3" height="24.04" style="fill:#787878;opacity:0.5"/><rect x="85.13" y="2" width="40.3" height="29.09" style="fill:#787878"/><rect x="85.13" y="110.79" width="40.3" height="24.04" style="fill:#787878;opacity:0.25"/><rect x="127.7" y="59.11" width="40.3" height="24.04" style="fill:#787878;opacity:0.25"/><rect x="127.7" y="84.95" width="40.3" height="24.04" style="fill:#787878;opacity:0.5"/><rect x="127.7" y="33.27" width="40.3" height="24.04" style="fill:#787878;opacity:0.5"/><rect x="127.7" y="2" width="40.3" height="29.09" style="fill:#787878"/><rect x="127.7" y="110.79" width="40.3" height="24.04" style="fill:#787878;opacity:0.25"/><rect x="42.57" y="136.96" width="40.3" height="24.04" style="fill:#787878;opacity:0.5"/><rect y="136.96" width="40.3" height="24.04" style="fill:#787878;opacity:0.5"/><rect x="85.13" y="136.96" width="40.3" height="24.04" style="fill:#787878;opacity:0.5"/><rect x="127.7" y="136.96" width="40.3" height="24.04" style="fill:#787878;opacity:0.5"/><path d="M168,2V161H2V2H168m2-2H0V163H170V0Z" style="fill:#787878"/></g></g></svg>