<svg xmlns="http://www.w3.org/2000/svg" viewBox="0 0 168.74 176.79"><title>Asset 4</title><g id="Layer_2" data-name="Layer 2"><g id="Isolation_Mode" data-name="Isolation Mode"><path d="M168.74,36.62C168.74,16.4,131,0,84.37,0S0,16.4,0,36.62V140.17c0,20.22,37.77,36.62,84.37,36.62s84.37-16.4,84.37-36.62Z" style="fill:#378c73"/><polyline points="70.81 96.21 78.44 88.08 84.54 95.7 96.23 99.26 85.05 102.82 83.52 110.45 72.34 105.87 65.22 130.78 55.57 97.23 40.32 89.61 60.65 83.51 57.6 54.03 72.34 75.37 90.64 49.96 93.18 78.93 128.25 80.97 101.82 92.66 123.68 111.46 93.18 108.41 93.69 120.1 78.95 118.58" style="fill:none;stroke:#fff;stroke-miterlimit:10;stroke-width:3.5580118415611928px"/></g></g></svg>