<svg xmlns="http://www.w3.org/2000/svg" viewBox="0 0 160.43 164.26"><title>Asset 5</title><g id="Layer_2" data-name="Layer 2"><g id="Isolation_Mode" data-name="Isolation Mode"><path d="M147.34,120.17c-20.5,38-67.16,51.77-104.23,30.76s-50.51-68.84-30-106.84S80.25-7.68,117.32,13.33,167.83,82.17,147.34,120.17Z" style="fill:none;stroke:#378c73;stroke-miterlimit:10;stroke-width:7px"/><line x1="117.66" y1="12.71" x2="80.21" y2="82.13" style="fill:none;stroke:#378c73;stroke-miterlimit:10;stroke-width:5px"/><polygon points="119.94 24.88 106.39 17.2 110.89 8.87 124.43 16.55 119.94 24.88" style="fill:#378c73"/><line x1="40.28" y1="14.18" x2="80.21" y2="82.13" style="fill:none;stroke:#378c73;stroke-miterlimit:10;stroke-width:5px"/><polygon points="51.7 18.24 38.44 26.42 33.65 18.27 46.91 10.08 51.7 18.24" style="fill:#378c73"/><line x1="2.83" y1="83.6" x2="80.21" y2="82.13" style="fill:none;stroke:#378c73;stroke-miterlimit:10;stroke-width:5px"/><rect x="-0.46" y="78.87" width="15.87" height="9.29" transform="matrix(-0.02, -1, 1, -0.02, -75.89, 92.5)" style="fill:#378c73"/><line x1="42.76" y1="151.55" x2="80.21" y2="82.13" style="fill:none;stroke:#378c73;stroke-miterlimit:10;stroke-width:5px"/><polygon points="40.48 139.38 54.03 147.06 49.54 155.39 35.99 147.72 40.48 139.38" style="fill:#378c73"/><line x1="120.15" y1="150.08" x2="80.21" y2="82.13" style="fill:none;stroke:#378c73;stroke-miterlimit:10;stroke-width:5px"/><polygon points="108.72 146.02 121.98 137.84 126.78 145.99 113.52 154.18 108.72 146.02" style="fill:#378c73"/><line x1="157.59" y1="80.66" x2="80.21" y2="82.13" style="fill:none;stroke:#378c73;stroke-miterlimit:10;stroke-width:5px"/><rect x="145.02" y="76.1" width="15.87" height="9.29" transform="translate(230.92 -73.64) rotate(88.96)" style="fill:#378c73"/><polygon points="90.42 64.01 70.01 64.01 59.8 82.13 70.01 100.25 90.42 100.25 100.63 82.13 90.42 64.01" style="fill:#378c73"/></g></g></svg>