<?xml version="1.0" encoding="utf-8"?>
<!-- Generator: Adobe Illustrator 23.0.4, SVG Export Plug-In . SVG Version: 6.00 Build 0)  -->
<svg version="1.1" id="Layer_1" xmlns="http://www.w3.org/2000/svg" xmlns:xlink="http://www.w3.org/1999/xlink" x="0px" y="0px"
	 viewBox="0 0 168.7 176.8" style="enable-background:new 0 0 168.7 176.8;" xml:space="preserve">
<style type="text/css">
	.st0{fill:#378B73;}
	.st1{fill:#FFFFFF;}
</style>
<g>
	<g id="Isolation_Mode_2_">
		<path class="st0" d="M168.7,36.6C168.7,16.4,131,0,84.4,0S0,16.4,0,36.6v103.6c0,20.2,37.8,36.6,84.4,36.6s84.4-16.4,84.4-36.6
			V36.6z"/>
	</g>
</g>
<path class="st1" d="M104.5,79.5c0.8-14.3,3.5-23.8,6-29.7l3.3,2l0.1-11.4l-9.9,5.6l3.3,2c-3.2,7.4-6.7,20.1-6.7,40.5
	c0,2.5,0.1,4.8,0.2,7.1c-4.4,0.3-9.3,0.5-14.7,0.6V39.4H90l-5.7-9.8l-5.7,9.8h3.9v56.6c-5.7,0-10.8-0.3-15.3-0.6
	c0.1-2.3,0.2-4.6,0.2-7.1c0-20.4-3.5-33.1-6.7-40.5l3.3-2l-9.9-5.6l0.1,11.4l3.3-2c2.5,5.9,5.2,15.4,6,29.8
	c-28.7,2.6-28.7,8.8-28.7,10.8c0,4.2,5,7,16.1,9.1c3.7,0.7,7.9,1.3,12.4,1.7c-1.1,11.9-3.6,20.3-5.9,25.8l-3.4-1.9l0.2,11.4l9.8-5.8
	l-3.4-1.9c2.5-5.8,5.2-14.7,6.3-27.3c5,0.4,10.3,0.6,15.7,0.6v35.3h-3.9l5.7,9.8l5.7-9.8h-3.9v-35.3c5.2,0,10.3-0.2,15.1-0.6
	c1.2,12.5,3.8,21.4,6.3,27.2l-3.4,1.9l9.8,5.8l0.2-11.4l-3.4,1.9c-2.3-5.6-4.8-14-5.9-25.8c4.8-0.4,9.2-1,13-1.7
	c11.1-2.1,16.1-4.9,16.1-9.1C133.9,88.3,133.8,82,104.5,79.5z M41.4,90.4c2-1.2,8.3-3.5,22.4-4.8c0,0.9,0,1.9,0,2.9
	c0,2.4-0.1,4.6-0.2,6.8C51.3,94,43.8,91.9,41.4,90.4z M104.4,95.2c-0.1-2.2-0.2-4.4-0.2-6.8c0-1,0-2,0-2.9c14.6,1.3,21,3.6,23.1,4.9
	C124.9,91.9,117.2,94,104.4,95.2z"/>
</svg>
