<svg xmlns="http://www.w3.org/2000/svg" viewBox="0 0 168.74 176.79"><title>Asset 3</title><g id="Layer_2" data-name="Layer 2"><g id="Isolation_Mode" data-name="Isolation Mode"><path d="M168.74,36.62C168.74,16.4,131,0,84.37,0S0,16.4,0,36.62V140.17c0,20.22,37.77,36.62,84.37,36.62s84.37-16.4,84.37-36.62Z" style="fill:#378c73"/><path d="M84.37,88.39" style="fill:none;stroke:#fff;stroke-miterlimit:10;stroke-width:5px"/><path d="M84.37,88.39" style="fill:none;stroke:#fff;stroke-miterlimit:10;stroke-width:5px"/><path d="M33.76,129.43a58.76,58.76,0,0,1,.77-54.12,55.92,55.92,0,0,1,97.88,54.12" style="fill:none;stroke:#fff;stroke-linecap:square;stroke-miterlimit:10;stroke-width:7px"/><line x1="114.33" y1="49.59" x2="105.15" y2="66.19" style="fill:none;stroke:#378c73;stroke-miterlimit:10;stroke-width:7px"/><line x1="49.51" y1="50.79" x2="57.01" y2="63.24" style="fill:none;stroke:#378c73;stroke-miterlimit:10;stroke-width:7px"/><line x1="18.03" y1="88.05" x2="36.28" y2="93.19" style="fill:none;stroke:#378c73;stroke-miterlimit:10;stroke-width:7px"/><line x1="146.7" y1="88.05" x2="128.82" y2="93.18" style="fill:none;stroke:#378c73;stroke-miterlimit:10;stroke-width:7px"/><circle cx="82.58" cy="104.01" r="7.81" style="fill:#fff"/><line x1="82.73" y1="104.65" x2="109.97" y2="77.53" style="fill:none;stroke:#fff;stroke-miterlimit:10;stroke-width:7px"/></g></g></svg>